<svg width="767" height="155" viewBox="0 0 767 155" fill="none" xmlns="http://www.w3.org/2000/svg">
<path d="M247.183 52.536C242.373 41.1991 234.382 31.5788 224.307 24.7692C219.293 21.3848 213.746 18.6927 207.793 16.857C201.88 14.9814 195.56 14.002 189.038 14.002C180.676 14.002 172.643 15.6348 165.305 18.6135C164.691 18.8557 164.122 19.099 163.553 19.3856C156.947 22.2805 150.91 26.3582 145.733 31.2119C144.061 32.801 142.472 34.4732 140.879 36.3488C138.068 39.5702 135.173 43.2816 132.358 47.0323C131.788 47.8044 131.175 48.6208 130.606 49.3979C129.057 51.5163 114.252 73.2102 111.643 77.0845C110.337 79.0394 108.788 81.2415 107.115 83.6469C106.749 84.1768 106.343 84.75 105.937 85.3192C103.162 89.2738 100.064 93.4347 97.2085 97.1062C95.7829 98.938 94.3535 100.65 93.1308 102.08C91.8687 103.545 90.7258 104.728 89.9094 105.504C86.4054 108.805 82.2838 111.497 77.7605 113.333C73.2332 115.169 68.2992 116.188 63.0786 116.188C59.4908 116.188 56.0262 115.697 52.7654 114.802C51.0932 114.352 49.4603 113.782 47.8713 113.09C40.8553 110.151 34.8621 105.177 30.6613 98.9375C28.5429 95.7998 26.8702 92.375 25.7278 88.7036C24.6282 85.0321 23.9758 81.1617 23.9758 77.084C23.9758 71.6605 25.0788 66.5635 27.0337 61.8723C30.0123 54.8603 34.9857 48.9074 41.2256 44.6662C44.3633 42.5439 47.7876 40.915 51.459 39.7721C55.1266 38.6292 59.0009 37.9807 63.0786 37.9807C68.2992 38.0201 73.2332 39 77.7605 40.8318C82.2843 42.7069 86.4054 45.3591 89.9094 48.6602C90.7258 49.4368 91.8687 50.659 93.1308 52.0884C95.3329 54.6569 97.9412 57.9581 100.553 61.4266C101.573 62.8123 102.592 64.198 103.611 65.6235C107.526 59.9174 114.375 49.8864 117.962 44.7056C117.353 43.8892 116.74 43.0772 116.131 42.2608C114.498 40.1779 112.865 38.1831 111.237 36.3474C109.604 34.4717 108.055 32.7995 106.383 31.2105C100.756 25.9061 94.1107 21.5862 86.8111 18.6115C79.4721 15.6329 71.4369 14 63.0786 14C54.3938 14 46.0754 15.756 38.4937 18.9773C27.1573 23.7479 17.5724 31.7398 10.7628 41.8102C7.37837 46.828 4.69027 52.4105 2.81465 58.3239C0.979417 64.2787 0 70.5585 0 77.085C0 85.7698 1.75202 94.0882 4.93402 101.63C9.74394 113.007 17.7359 122.592 27.7669 129.401C32.824 132.786 38.3711 135.473 44.3239 137.349C50.2369 139.185 56.5565 140.164 63.0791 140.164C71.4374 140.164 79.4731 138.531 86.8116 135.557C94.1112 132.578 100.717 128.257 106.344 122.997L106.383 122.958C108.056 121.408 109.605 119.692 111.237 117.817C114.049 114.595 116.944 110.888 119.759 107.137C120.328 106.36 120.942 105.584 121.511 104.811C123.06 102.649 143.328 72.9231 144.997 70.5181C145.367 69.9883 145.774 69.4191 146.179 68.8459C148.955 64.9312 152.053 60.7308 154.908 57.0633C156.333 55.2276 157.763 53.515 158.986 52.0894C160.248 50.6201 161.391 49.4373 162.207 48.6612C165.711 45.3601 169.833 42.7079 174.356 40.8328C175.459 40.3866 176.559 40.0208 177.701 39.65C181.289 38.5913 185.079 38.0216 189.038 37.9817C194.461 38.0211 199.598 39.0808 204.245 41.0795C211.257 44.0143 217.254 48.9877 221.451 55.2276C223.573 58.3692 225.246 61.794 226.385 65.461C227.528 69.1325 228.141 73.0068 228.141 77.0845C228.141 82.508 227.038 87.6449 225.083 92.2918C222.104 99.3038 217.131 105.301 210.891 109.498C207.753 111.62 204.329 113.293 200.657 114.392C197.03 115.535 193.116 116.188 189.038 116.188C183.817 116.188 178.883 115.169 174.356 113.333C169.832 111.498 165.711 108.806 162.207 105.504C161.39 104.728 160.247 103.506 158.985 102.08C156.783 99.5515 154.171 96.2065 151.562 92.7424C150.504 91.3562 149.484 89.9267 148.465 88.5012C148.138 88.9906 147.812 89.4811 147.445 90.0104C140.716 99.878 136.475 106.117 134.153 109.498C134.762 110.315 135.376 111.091 135.985 111.908C137.618 113.986 139.25 115.985 140.878 117.817C142.471 119.692 144.06 121.408 145.733 122.958C151.359 128.257 158.005 132.578 165.304 135.557C172.643 138.531 180.675 140.164 189.037 140.164C197.722 140.164 206.04 138.412 213.582 135.231C224.959 130.42 234.54 122.428 241.353 112.354C244.734 107.341 247.469 101.793 249.301 95.8402C251.137 89.9267 252.117 83.6076 252.117 77.085C252.117 68.4002 250.365 60.0818 247.183 52.536Z" fill="url(#paint0_linear_64_2)"/>
<path d="M288.091 124V30.9091H307.773V69.3182H347.727V30.9091H367.364V124H347.727V85.5455H307.773V124H288.091ZM428 94.2727V54.1818H447.364V124H428.773V111.318H428.045C426.47 115.409 423.848 118.697 420.182 121.182C416.545 123.667 412.106 124.909 406.864 124.909C402.197 124.909 398.091 123.848 394.545 121.727C391 119.606 388.227 116.591 386.227 112.682C384.258 108.773 383.258 104.091 383.227 98.6364V54.1818H402.591V95.1818C402.621 99.303 403.727 102.561 405.909 104.955C408.091 107.348 411.015 108.545 414.682 108.545C417.015 108.545 419.197 108.015 421.227 106.955C423.258 105.864 424.894 104.258 426.136 102.136C427.409 100.015 428.03 97.3939 428 94.2727ZM462.489 124V112.455L496.67 70.1364V69.6364H463.67V54.1818H519.989V66.7727L487.898 108.045V108.545H521.17V124H462.489ZM555.886 125.318C551.432 125.318 547.462 124.545 543.977 123C540.492 121.424 537.735 119.106 535.705 116.045C533.705 112.955 532.705 109.106 532.705 104.5C532.705 100.621 533.417 97.3636 534.841 94.7273C536.265 92.0909 538.205 89.9697 540.659 88.3636C543.114 86.7576 545.902 85.5455 549.023 84.7273C552.174 83.9091 555.477 83.3333 558.932 83C562.992 82.5758 566.265 82.1818 568.75 81.8182C571.235 81.4242 573.038 80.8485 574.159 80.0909C575.28 79.3333 575.841 78.2121 575.841 76.7273V76.4545C575.841 73.5758 574.932 71.3485 573.114 69.7727C571.326 68.197 568.78 67.4091 565.477 67.4091C561.992 67.4091 559.22 68.1818 557.159 69.7273C555.098 71.2424 553.735 73.1515 553.068 75.4545L535.159 74C536.068 69.7576 537.856 66.0909 540.523 63C543.189 59.8788 546.629 57.4848 550.841 55.8182C555.083 54.1212 559.992 53.2727 565.568 53.2727C569.447 53.2727 573.159 53.7273 576.705 54.6364C580.28 55.5455 583.447 56.9545 586.205 58.8636C588.992 60.7727 591.189 63.2273 592.795 66.2273C594.402 69.197 595.205 72.7576 595.205 76.9091V124H576.841V114.318H576.295C575.174 116.5 573.674 118.424 571.795 120.091C569.917 121.727 567.659 123.015 565.023 123.955C562.386 124.864 559.341 125.318 555.886 125.318ZM561.432 111.955C564.28 111.955 566.795 111.394 568.977 110.273C571.159 109.121 572.871 107.576 574.114 105.636C575.356 103.697 575.977 101.5 575.977 99.0455V91.6364C575.371 92.0303 574.538 92.3939 573.477 92.7273C572.447 93.0303 571.28 93.3182 569.977 93.5909C568.674 93.8333 567.371 94.0606 566.068 94.2727C564.765 94.4545 563.583 94.6212 562.523 94.7727C560.25 95.1061 558.265 95.6364 556.568 96.3636C554.871 97.0909 553.553 98.0758 552.614 99.3182C551.674 100.53 551.205 102.045 551.205 103.864C551.205 106.5 552.159 108.515 554.068 109.909C556.008 111.273 558.462 111.955 561.432 111.955ZM647.773 54.1818V68.7273H604.682V54.1818H647.773ZM614.545 124V49.1364C614.545 44.0758 615.53 39.8788 617.5 36.5454C619.5 33.2121 622.227 30.7121 625.682 29.0454C629.136 27.3788 633.061 26.5454 637.455 26.5454C640.424 26.5454 643.136 26.7727 645.591 27.2273C648.076 27.6818 649.924 28.0909 651.136 28.4545L647.682 43C646.924 42.7576 645.985 42.5303 644.864 42.3182C643.773 42.1061 642.652 42 641.5 42C638.652 42 636.667 42.6667 635.545 44C634.424 45.303 633.864 47.1364 633.864 49.5V124H614.545ZM659.602 124V54.1818H678.966V124H659.602ZM669.33 45.1818C666.451 45.1818 663.981 44.2273 661.92 42.3182C659.89 40.3788 658.875 38.0606 658.875 35.3636C658.875 32.697 659.89 30.4091 661.92 28.5C663.981 26.5606 666.451 25.5909 669.33 25.5909C672.208 25.5909 674.663 26.5606 676.693 28.5C678.754 30.4091 679.784 32.697 679.784 35.3636C679.784 38.0606 678.754 40.3788 676.693 42.3182C674.663 44.2273 672.208 45.1818 669.33 45.1818ZM713.841 83.6364V124H694.477V54.1818H712.932V66.5H713.75C715.295 62.4394 717.886 59.2273 721.523 56.8636C725.159 54.4697 729.568 53.2727 734.75 53.2727C739.598 53.2727 743.826 54.3333 747.432 56.4545C751.038 58.5758 753.841 61.6061 755.841 65.5455C757.841 69.4545 758.841 74.1212 758.841 79.5455V124H739.477V83C739.508 78.7273 738.417 75.3939 736.205 73C733.992 70.5758 730.947 69.3636 727.068 69.3636C724.462 69.3636 722.159 69.9242 720.159 71.0455C718.189 72.1667 716.644 73.803 715.523 75.9545C714.432 78.0758 713.871 80.6364 713.841 83.6364Z" fill="#1C2434"/>
<defs>
<linearGradient id="paint0_linear_64_2" x1="126.059" y1="14" x2="126.059" y2="140.164" gradientUnits="userSpaceOnUse">
<stop stop-color="#3C4FE0"/>
<stop offset="1" stop-color="#00E0FF"/>
</linearGradient>
</defs>
</svg>
